<?xml version="1.0" encoding="UTF-8"?>
<svg id="Layer_1" data-name="Layer 1" xmlns="http://www.w3.org/2000/svg" viewBox="0 0 2000 2000">
  <defs>
    <style>
      .cls-1 {
        opacity: .38;
      }

      .cls-2 {
        fill: #28a6df;
      }
    </style>
  </defs>
  <path class="cls-2" d="M387.54,1415.65c0,17.97,12.73,40.03,28.3,49.02l556.1,321.18c15.56,8.99,15.56,23.7,0,32.69l-106.29,61.38c-15.56,8.99-41.03,8.99-56.6,0L90.07,1464.67c-15.56-8.99-28.3-31.05-28.3-49.02v-830.5c0-17.97,12.73-40.03,28.3-49.02L809.05,120.9c15.56-8.99,41.03-8.99,56.6,0l106.29,61.38c15.56,8.99,15.56,23.7,0,32.69l-556.1,321.16c-15.56,8.99-28.3,31.05-28.3,49.02v830.5Z"/>
  <g class="cls-1">
    <path class="cls-2" d="M1171.17,552.47c17.97,0,24.52,12.24,14.55,27.19l-126.63,189.94c-9.97,14.96-3.42,27.19,14.55,27.19h260.41c17.97,0,23,11.07,11.16,24.59l-527.05,602.34c-11.84,13.53-16.87,10.64-11.19-6.41l142.22-426.64c5.68-17.05-3.93-27.44-21.37-23.08l-262.36,65.59c-17.44,4.36-25.13-5.23-17.09-21.3l215.09-430.19c8.04-16.08,29.32-29.23,47.29-29.23h260.41Z"/>
  </g>
  <path class="cls-2" d="M818.16,1423.73c-11.84,13.53-16.87,10.64-11.19-6.41l142.22-426.64c5.68-17.05-3.93-27.44-21.37-23.08l-262.36,65.59c-17.44,4.36-25.13-5.23-17.09-21.3l215.09-430.19c8.04-16.08,29.32-29.23,47.29-29.23h260.41c17.97,0,24.52,12.24,14.55,27.19l-126.63,189.94c-9.97,14.96-3.42,27.19,14.55,27.19h260.41c17.97,0,23,11.07,11.16,24.59l-527.05,602.34Z"/>
  <path class="cls-2" d="M1910.39,536.13c15.56,8.99,28.3,31.05,28.3,49.02v830.5c0,17.97-12.73,40.03-28.3,49.02l-718.98,415.25c-15.56,8.99-41.03,8.99-56.6,0l-106.28-61.38c-15.56-8.99-15.56-23.7,0-32.69l556.1-321.18c15.56-8.99,28.3-31.05,28.3-49.02v-830.5c0-17.97-12.73-40.03-28.3-49.02l-556.1-321.16c-15.56-8.99-15.56-23.7,0-32.69l106.28-61.38c15.56-8.99,41.03-8.99,56.6,0l718.98,415.23Z"/>
</svg>